<svg xmlns="http://www.w3.org/2000/svg" xmlns:xlink="http://www.w3.org/1999/xlink" width="500" zoomAndPan="magnify" viewBox="0 0 375 374.999991" height="500" preserveAspectRatio="xMidYMid meet" version="1.0"><defs><g/><clipPath id="c1e2b427d6"><path d="M 37.703125 162.390625 L 337.382812 162.390625 L 337.382812 214.792969 L 37.703125 214.792969 Z M 37.703125 162.390625 " clip-rule="nonzero"/></clipPath><clipPath id="bcc7c04b52"><path d="M 64.378906 162.390625 L 336.75 162.390625 C 336.910156 162.390625 337.058594 162.472656 337.144531 162.609375 C 337.230469 162.746094 337.238281 162.917969 337.164062 163.0625 L 311.703125 214.121094 C 311.5 214.53125 311.078125 214.792969 310.621094 214.792969 L 38.25 214.792969 C 38.089844 214.792969 37.941406 214.710938 37.855469 214.574219 C 37.769531 214.4375 37.761719 214.265625 37.835938 214.121094 L 63.296875 163.0625 C 63.5 162.648438 63.921875 162.390625 64.378906 162.390625 Z M 64.378906 162.390625 " clip-rule="nonzero"/></clipPath><clipPath id="0f9c197f4e"><path d="M 37.515625 162.390625 L 336.980469 162.390625 L 336.980469 214.59375 L 37.515625 214.59375 Z M 37.515625 162.390625 " clip-rule="nonzero"/></clipPath><clipPath id="33b615a2a2"><path d="M 64.394531 162.390625 L 336.726562 162.390625 C 336.890625 162.390625 337.039062 162.472656 337.121094 162.609375 C 337.207031 162.746094 337.214844 162.917969 337.144531 163.0625 L 311.6875 214.113281 C 311.480469 214.527344 311.0625 214.785156 310.601562 214.785156 L 38.265625 214.785156 C 38.105469 214.785156 37.957031 214.703125 37.871094 214.566406 C 37.785156 214.429688 37.777344 214.257812 37.851562 214.113281 L 63.308594 163.0625 C 63.511719 162.648438 63.933594 162.390625 64.394531 162.390625 Z M 64.394531 162.390625 " clip-rule="nonzero"/></clipPath></defs><g clip-path="url(#c1e2b427d6)"><g clip-path="url(#bcc7c04b52)"><path fill="#69c6be" d="M 37.5 162.390625 L 337.585938 162.390625 L 337.585938 214.792969 L 37.5 214.792969 Z M 37.5 162.390625 " fill-opacity="1" fill-rule="nonzero"/></g></g><g clip-path="url(#0f9c197f4e)"><g clip-path="url(#33b615a2a2)"><path stroke-linecap="butt" transform="matrix(1.373757, 0, 0, 1.373757, 37.516255, 162.389593)" fill="none" stroke-linejoin="miter" d="M 19.565531 0.00075098 L 217.804459 0.00075098 C 217.923886 0.00075098 218.031938 0.0604641 218.091651 0.159986 C 218.154208 0.259508 218.159894 0.384621 218.108712 0.48983 L 199.57775 37.651276 C 199.427045 37.952685 199.122793 38.140355 198.787262 38.140355 L 0.54549 38.140355 C 0.428907 38.140355 0.320855 38.080642 0.258298 37.98112 C 0.195742 37.881598 0.190055 37.756485 0.244081 37.651276 L 18.775043 0.48983 C 18.922904 0.188421 19.23 0.00075098 19.565531 0.00075098 Z M 19.565531 0.00075098 " stroke="#303030" stroke-width="5.459482" stroke-opacity="1" stroke-miterlimit="4"/></g></g><g fill="#303030" fill-opacity="1"><g transform="translate(63.632938, 208.793227)"><g><path d="M 1.515625 0 L 10.359375 -41.84375 L 22.03125 -41.84375 C 25.425781 -41.84375 28.148438 -41.332031 30.203125 -40.3125 C 32.253906 -39.289062 33.742188 -37.863281 34.671875 -36.03125 C 35.597656 -34.195312 36.0625 -32.066406 36.0625 -29.640625 C 36.0625 -27.160156 35.601562 -24.992188 34.6875 -23.140625 C 33.769531 -21.296875 32.484375 -19.757812 30.828125 -18.53125 C 29.179688 -17.300781 27.25 -16.382812 25.03125 -15.78125 C 22.820312 -15.175781 20.421875 -14.875 17.828125 -14.875 L 13.359375 -14.875 L 10.25 0 Z M 14.9375 -22.15625 L 18.515625 -22.15625 C 20.253906 -22.15625 21.773438 -22.441406 23.078125 -23.015625 C 24.390625 -23.585938 25.410156 -24.414062 26.140625 -25.5 C 26.878906 -26.582031 27.25 -27.890625 27.25 -29.421875 C 27.25 -31.171875 26.785156 -32.46875 25.859375 -33.3125 C 24.929688 -34.15625 23.539062 -34.578125 21.6875 -34.578125 L 17.578125 -34.578125 Z M 14.9375 -22.15625 "/></g></g></g><g fill="#303030" fill-opacity="1"><g transform="translate(99.370502, 208.793227)"><g><path d="M -3.515625 0 L 18.40625 -41.84375 L 29.078125 -41.84375 L 33.28125 0 L 24.78125 0 L 24.09375 -9.953125 L 10.5625 -9.953125 L 5.640625 0 Z M 14.140625 -17.40625 L 23.671875 -17.40625 L 22.921875 -28.1875 C 22.847656 -29.332031 22.769531 -30.484375 22.6875 -31.640625 C 22.613281 -32.804688 22.597656 -34.003906 22.640625 -35.234375 L 22.5 -35.234375 C 22.132812 -34.179688 21.710938 -33.128906 21.234375 -32.078125 C 20.753906 -31.023438 20.21875 -29.910156 19.625 -28.734375 Z M 14.140625 -17.40625 "/></g></g></g><g fill="#303030" fill-opacity="1"><g transform="translate(136.166745, 208.793227)"><g><path d="M 11.359375 0.578125 C 9.265625 0.578125 7.34375 0.347656 5.59375 -0.109375 C 3.84375 -0.566406 2.367188 -1.195312 1.171875 -2 L 1.171875 -9.84375 C 2.910156 -8.875 4.613281 -8.113281 6.28125 -7.5625 C 7.945312 -7.019531 9.660156 -6.75 11.421875 -6.75 C 12.390625 -6.75 13.289062 -6.835938 14.125 -7.015625 C 14.957031 -7.203125 15.675781 -7.484375 16.28125 -7.859375 C 16.894531 -8.242188 17.375 -8.722656 17.71875 -9.296875 C 18.0625 -9.867188 18.234375 -10.535156 18.234375 -11.296875 C 18.234375 -12.390625 18.015625 -13.300781 17.578125 -14.03125 C 17.148438 -14.769531 16.5625 -15.453125 15.8125 -16.078125 C 15.0625 -16.710938 14.1875 -17.390625 13.1875 -18.109375 C 12.03125 -18.953125 10.898438 -19.90625 9.796875 -20.96875 C 8.703125 -22.039062 7.800781 -23.285156 7.09375 -24.703125 C 6.382812 -26.128906 6.03125 -27.796875 6.03125 -29.703125 C 6.03125 -31.578125 6.367188 -33.285156 7.046875 -34.828125 C 7.722656 -36.367188 8.691406 -37.710938 9.953125 -38.859375 C 11.210938 -40.003906 12.722656 -40.882812 14.484375 -41.5 C 16.253906 -42.125 18.226562 -42.4375 20.40625 -42.4375 C 22.5625 -42.4375 24.554688 -42.203125 26.390625 -41.734375 C 28.234375 -41.265625 30.023438 -40.554688 31.765625 -39.609375 L 28.640625 -32.9375 C 27.160156 -33.644531 25.742188 -34.175781 24.390625 -34.53125 C 23.046875 -34.882812 21.71875 -35.0625 20.40625 -35.0625 C 19.625 -35.0625 18.898438 -34.953125 18.234375 -34.734375 C 17.578125 -34.515625 17.003906 -34.195312 16.515625 -33.78125 C 16.035156 -33.375 15.660156 -32.882812 15.390625 -32.3125 C 15.128906 -31.738281 15 -31.085938 15 -30.359375 C 15 -29.367188 15.203125 -28.519531 15.609375 -27.8125 C 16.015625 -27.101562 16.601562 -26.445312 17.375 -25.84375 C 18.15625 -25.25 19.085938 -24.59375 20.171875 -23.875 C 21.722656 -22.851562 23.007812 -21.765625 24.03125 -20.609375 C 25.050781 -19.460938 25.8125 -18.210938 26.3125 -16.859375 C 26.820312 -15.503906 27.078125 -14.003906 27.078125 -12.359375 C 27.078125 -10.171875 26.664062 -8.265625 25.84375 -6.640625 C 25.019531 -5.015625 23.890625 -3.664062 22.453125 -2.59375 C 21.015625 -1.53125 19.34375 -0.734375 17.4375 -0.203125 C 15.539062 0.316406 13.515625 0.578125 11.359375 0.578125 Z M 11.359375 0.578125 "/></g></g></g><g fill="#303030" fill-opacity="1"><g transform="translate(167.211786, 208.793227)"><g><path d="M 11.359375 0.578125 C 9.265625 0.578125 7.34375 0.347656 5.59375 -0.109375 C 3.84375 -0.566406 2.367188 -1.195312 1.171875 -2 L 1.171875 -9.84375 C 2.910156 -8.875 4.613281 -8.113281 6.28125 -7.5625 C 7.945312 -7.019531 9.660156 -6.75 11.421875 -6.75 C 12.390625 -6.75 13.289062 -6.835938 14.125 -7.015625 C 14.957031 -7.203125 15.675781 -7.484375 16.28125 -7.859375 C 16.894531 -8.242188 17.375 -8.722656 17.71875 -9.296875 C 18.0625 -9.867188 18.234375 -10.535156 18.234375 -11.296875 C 18.234375 -12.390625 18.015625 -13.300781 17.578125 -14.03125 C 17.148438 -14.769531 16.5625 -15.453125 15.8125 -16.078125 C 15.0625 -16.710938 14.1875 -17.390625 13.1875 -18.109375 C 12.03125 -18.953125 10.898438 -19.90625 9.796875 -20.96875 C 8.703125 -22.039062 7.800781 -23.285156 7.09375 -24.703125 C 6.382812 -26.128906 6.03125 -27.796875 6.03125 -29.703125 C 6.03125 -31.578125 6.367188 -33.285156 7.046875 -34.828125 C 7.722656 -36.367188 8.691406 -37.710938 9.953125 -38.859375 C 11.210938 -40.003906 12.722656 -40.882812 14.484375 -41.5 C 16.253906 -42.125 18.226562 -42.4375 20.40625 -42.4375 C 22.5625 -42.4375 24.554688 -42.203125 26.390625 -41.734375 C 28.234375 -41.265625 30.023438 -40.554688 31.765625 -39.609375 L 28.640625 -32.9375 C 27.160156 -33.644531 25.742188 -34.175781 24.390625 -34.53125 C 23.046875 -34.882812 21.71875 -35.0625 20.40625 -35.0625 C 19.625 -35.0625 18.898438 -34.953125 18.234375 -34.734375 C 17.578125 -34.515625 17.003906 -34.195312 16.515625 -33.78125 C 16.035156 -33.375 15.660156 -32.882812 15.390625 -32.3125 C 15.128906 -31.738281 15 -31.085938 15 -30.359375 C 15 -29.367188 15.203125 -28.519531 15.609375 -27.8125 C 16.015625 -27.101562 16.601562 -26.445312 17.375 -25.84375 C 18.15625 -25.25 19.085938 -24.59375 20.171875 -23.875 C 21.722656 -22.851562 23.007812 -21.765625 24.03125 -20.609375 C 25.050781 -19.460938 25.8125 -18.210938 26.3125 -16.859375 C 26.820312 -15.503906 27.078125 -14.003906 27.078125 -12.359375 C 27.078125 -10.171875 26.664062 -8.265625 25.84375 -6.640625 C 25.019531 -5.015625 23.890625 -3.664062 22.453125 -2.59375 C 21.015625 -1.53125 19.34375 -0.734375 17.4375 -0.203125 C 15.539062 0.316406 13.515625 0.578125 11.359375 0.578125 Z M 11.359375 0.578125 "/></g></g></g><g fill="#303030" fill-opacity="1"><g transform="translate(198.256828, 208.793227)"><g><path d="M 1.453125 0 L 10.359375 -41.84375 L 19.109375 -41.84375 L 10.1875 0 Z M 1.453125 0 "/></g></g></g><g fill="#303030" fill-opacity="1"><g transform="translate(216.998304, 208.793227)"><g><path d="M 1.515625 0 L 10.359375 -41.84375 L 21.921875 -41.84375 L 23.78125 -10.5625 L 24.03125 -10.5625 L 39.75 -41.84375 L 51.859375 -41.84375 L 43.015625 0 L 35 0 L 39.15625 -19.796875 C 39.4375 -21.117188 39.757812 -22.53125 40.125 -24.03125 C 40.488281 -25.539062 40.859375 -27.03125 41.234375 -28.5 C 41.617188 -29.96875 41.960938 -31.273438 42.265625 -32.421875 L 42.015625 -32.421875 L 25.734375 0 L 17.6875 0 L 15.9375 -32.421875 L 15.71875 -32.421875 C 15.613281 -31.585938 15.445312 -30.453125 15.21875 -29.015625 C 14.988281 -27.585938 14.726562 -26.035156 14.4375 -24.359375 C 14.144531 -22.691406 13.828125 -21.054688 13.484375 -19.453125 L 9.390625 0 Z M 1.515625 0 "/></g></g></g><g fill="#303030" fill-opacity="1"><g transform="translate(268.558824, 208.793227)"><g><path d="M 19.0625 0.578125 C 15.664062 0.578125 12.816406 -0.078125 10.515625 -1.390625 C 8.210938 -2.710938 6.46875 -4.570312 5.28125 -6.96875 C 4.101562 -9.363281 3.515625 -12.164062 3.515625 -15.375 C 3.515625 -17.539062 3.707031 -19.710938 4.09375 -21.890625 C 4.488281 -24.066406 5.082031 -26.164062 5.875 -28.1875 C 6.664062 -30.207031 7.664062 -32.085938 8.875 -33.828125 C 10.09375 -35.566406 11.519531 -37.082031 13.15625 -38.375 C 14.800781 -39.675781 16.660156 -40.6875 18.734375 -41.40625 C 20.816406 -42.132812 23.128906 -42.5 25.671875 -42.5 C 30.742188 -42.5 34.5625 -41.070312 37.125 -38.21875 C 39.695312 -35.363281 40.984375 -31.570312 40.984375 -26.84375 C 40.984375 -24.570312 40.796875 -22.316406 40.421875 -20.078125 C 40.046875 -17.847656 39.472656 -15.710938 38.703125 -13.671875 C 37.929688 -11.640625 36.945312 -9.757812 35.75 -8.03125 C 34.5625 -6.300781 33.15625 -4.789062 31.53125 -3.5 C 29.914062 -2.21875 28.070312 -1.21875 26 -0.5 C 23.925781 0.21875 21.613281 0.578125 19.0625 0.578125 Z M 19.6875 -6.875 C 20.832031 -6.875 21.925781 -7.082031 22.96875 -7.5 C 24.019531 -7.914062 25.003906 -8.519531 25.921875 -9.3125 C 26.835938 -10.101562 27.671875 -11.078125 28.421875 -12.234375 C 29.179688 -13.390625 29.828125 -14.695312 30.359375 -16.15625 C 30.898438 -17.613281 31.316406 -19.21875 31.609375 -20.96875 C 31.898438 -22.726562 32.046875 -24.609375 32.046875 -26.609375 C 32.046875 -29.191406 31.445312 -31.253906 30.25 -32.796875 C 29.0625 -34.335938 27.296875 -35.109375 24.953125 -35.109375 C 23.753906 -35.109375 22.601562 -34.867188 21.5 -34.390625 C 20.40625 -33.921875 19.394531 -33.242188 18.46875 -32.359375 C 17.539062 -31.484375 16.707031 -30.441406 15.96875 -29.234375 C 15.226562 -28.035156 14.585938 -26.703125 14.046875 -25.234375 C 13.515625 -23.765625 13.109375 -22.203125 12.828125 -20.546875 C 12.554688 -18.890625 12.421875 -17.164062 12.421875 -15.375 C 12.421875 -13.519531 12.707031 -11.957031 13.28125 -10.6875 C 13.851562 -9.414062 14.679688 -8.460938 15.765625 -7.828125 C 16.859375 -7.191406 18.164062 -6.875 19.6875 -6.875 Z M 19.6875 -6.875 "/></g></g></g></svg>